<svg width="281" height="52" viewBox="0 0 281 52" fill="none" xmlns="http://www.w3.org/2000/svg">
<g filter="url(#filter0_d)">
<rect x="1" y="1" width="275" height="46" rx="3" fill="#4285F4"/>
</g>
<path d="M68.192 29C67.8827 29 67.6427 28.9147 67.472 28.744C67.3013 28.5733 67.216 28.3387 67.216 28.04V18.664C67.216 18.3547 67.3067 18.1093 67.488 17.928C67.68 17.736 67.9307 17.64 68.24 17.64C68.56 17.64 68.8107 17.736 68.992 17.928C69.184 18.1093 69.28 18.3547 69.28 18.664V27.304H73.776C74.416 27.304 74.736 27.5867 74.736 28.152C74.736 28.7173 74.416 29 73.776 29H68.192ZM79.9361 29.128C79.1361 29.128 78.4321 28.9627 77.8241 28.632C77.2268 28.3013 76.7628 27.8267 76.4321 27.208C76.1015 26.5893 75.9361 25.8693 75.9361 25.048C75.9361 24.2267 76.1015 23.512 76.4321 22.904C76.7628 22.2853 77.2268 21.8107 77.8241 21.48C78.4321 21.1493 79.1361 20.984 79.9361 20.984C80.7361 20.984 81.4348 21.1493 82.0321 21.48C82.6401 21.8107 83.1041 22.2853 83.4241 22.904C83.7548 23.512 83.9201 24.2267 83.9201 25.048C83.9201 25.8693 83.7548 26.5893 83.4241 27.208C83.1041 27.8267 82.6401 28.3013 82.0321 28.632C81.4348 28.9627 80.7361 29.128 79.9361 29.128ZM79.9201 27.576C80.5708 27.576 81.0668 27.3627 81.4081 26.936C81.7495 26.5093 81.9201 25.88 81.9201 25.048C81.9201 24.2267 81.7495 23.6027 81.4081 23.176C81.0668 22.7387 80.5761 22.52 79.9361 22.52C79.2961 22.52 78.8001 22.7387 78.4481 23.176C78.1068 23.6027 77.9361 24.2267 77.9361 25.048C77.9361 25.88 78.1068 26.5093 78.4481 26.936C78.7895 27.3627 79.2801 27.576 79.9201 27.576ZM92.6953 21.016C92.9939 21.016 93.2339 21.1013 93.4153 21.272C93.5966 21.4427 93.6873 21.672 93.6873 21.96V28.28C93.6873 29.5067 93.3459 30.4347 92.6633 31.064C91.9806 31.6933 90.9726 32.008 89.6393 32.008C88.4766 32.008 87.5059 31.7893 86.7273 31.352C86.3326 31.1173 86.1353 30.8347 86.1353 30.504C86.1353 30.2693 86.1886 30.0827 86.2953 29.944C86.4126 29.8053 86.5619 29.736 86.7433 29.736C86.8393 29.736 86.9566 29.7573 87.0953 29.8C87.2339 29.8533 87.3779 29.912 87.5273 29.976C87.9113 30.136 88.2526 30.2587 88.5513 30.344C88.8606 30.4293 89.2126 30.472 89.6073 30.472C91.0046 30.472 91.7033 29.7893 91.7033 28.424V27.4C91.4686 27.8373 91.1273 28.1787 90.6793 28.424C90.2313 28.6587 89.7193 28.776 89.1432 28.776C88.4606 28.776 87.8526 28.616 87.3193 28.296C86.7966 27.9653 86.3859 27.5067 86.0872 26.92C85.7886 26.3333 85.6393 25.656 85.6393 24.888C85.6393 24.12 85.7833 23.4427 86.0713 22.856C86.3699 22.2587 86.7859 21.8 87.3193 21.48C87.8526 21.1493 88.4606 20.984 89.1432 20.984C89.7193 20.984 90.2313 21.1067 90.6793 21.352C91.1273 21.5867 91.4686 21.9227 91.7033 22.36V21.944C91.7033 21.6667 91.7939 21.4427 91.9753 21.272C92.1566 21.1013 92.3966 21.016 92.6953 21.016ZM89.6713 27.224C90.3113 27.224 90.8073 27.016 91.1593 26.6C91.5219 26.184 91.7033 25.6133 91.7033 24.888C91.7033 24.152 91.5219 23.576 91.1593 23.16C90.8073 22.744 90.3113 22.536 89.6713 22.536C89.0419 22.536 88.5459 22.744 88.1833 23.16C87.8206 23.576 87.6393 24.152 87.6393 24.888C87.6393 25.6133 87.8206 26.184 88.1833 26.6C88.5459 27.016 89.0419 27.224 89.6713 27.224ZM97.2508 29.096C96.9628 29.096 96.7228 29.016 96.5308 28.856C96.3494 28.6853 96.2588 28.4453 96.2588 28.136V21.96C96.2588 21.6507 96.3494 21.416 96.5308 21.256C96.7228 21.096 96.9628 21.016 97.2508 21.016C97.5388 21.016 97.7788 21.096 97.9708 21.256C98.1628 21.416 98.2588 21.6507 98.2588 21.96V28.136C98.2588 28.4453 98.1628 28.6853 97.9708 28.856C97.7788 29.016 97.5388 29.096 97.2508 29.096ZM97.2508 19.592C96.8881 19.592 96.6001 19.496 96.3868 19.304C96.1734 19.1013 96.0668 18.84 96.0668 18.52C96.0668 18.2 96.1734 17.944 96.3868 17.752C96.6001 17.56 96.8881 17.464 97.2508 17.464C97.6028 17.464 97.8854 17.56 98.0988 17.752C98.3228 17.944 98.4348 18.2 98.4348 18.52C98.4348 18.84 98.3281 19.1013 98.1148 19.304C97.9014 19.496 97.6134 19.592 97.2508 19.592ZM105.365 20.984C106.304 20.984 107.003 21.2507 107.461 21.784C107.92 22.3173 108.149 23.1227 108.149 24.2V28.136C108.149 28.4347 108.059 28.6693 107.877 28.84C107.707 29.0107 107.467 29.096 107.157 29.096C106.848 29.096 106.603 29.0107 106.421 28.84C106.24 28.6693 106.149 28.4347 106.149 28.136V24.312C106.149 23.704 106.032 23.2613 105.797 22.984C105.573 22.7067 105.216 22.568 104.725 22.568C104.149 22.568 103.685 22.7493 103.333 23.112C102.992 23.4747 102.821 23.96 102.821 24.568V28.136C102.821 28.4347 102.731 28.6693 102.549 28.84C102.368 29.0107 102.123 29.096 101.813 29.096C101.504 29.096 101.259 29.0107 101.077 28.84C100.907 28.6693 100.821 28.4347 100.821 28.136V21.944C100.821 21.6667 100.912 21.4427 101.093 21.272C101.275 21.1013 101.52 21.016 101.829 21.016C102.107 21.016 102.331 21.1013 102.501 21.272C102.683 21.432 102.773 21.6453 102.773 21.912V22.344C103.04 21.9067 103.397 21.5707 103.845 21.336C104.293 21.1013 104.8 20.984 105.365 20.984ZM126.1 21.608C126.175 21.416 126.282 21.272 126.42 21.176C126.57 21.08 126.73 21.032 126.9 21.032C127.146 21.032 127.364 21.1173 127.556 21.288C127.759 21.448 127.86 21.6507 127.86 21.896C127.86 22.0347 127.834 22.1573 127.78 22.264L125.14 28.456C125.055 28.6587 124.922 28.8133 124.74 28.92C124.57 29.0267 124.378 29.08 124.164 29.08C123.962 29.08 123.77 29.0267 123.588 28.92C123.418 28.8133 123.29 28.6587 123.204 28.456L121.3 23.88L119.46 28.456C119.375 28.6587 119.242 28.8133 119.06 28.92C118.89 29.0267 118.698 29.08 118.484 29.08C118.282 29.08 118.09 29.0267 117.908 28.92C117.727 28.8133 117.594 28.6587 117.508 28.456L114.884 22.264C114.831 22.1253 114.804 22.008 114.804 21.912C114.804 21.6667 114.911 21.4587 115.124 21.288C115.338 21.1067 115.572 21.016 115.828 21.016C116.01 21.016 116.175 21.064 116.324 21.16C116.474 21.256 116.586 21.4 116.66 21.592L118.548 26.472L120.484 21.64C120.57 21.4373 120.692 21.288 120.852 21.192C121.012 21.0853 121.188 21.032 121.38 21.032C121.572 21.032 121.748 21.0853 121.908 21.192C122.068 21.288 122.191 21.4373 122.276 21.64L124.228 26.488L126.1 21.608ZM130.72 29.096C130.432 29.096 130.192 29.016 130 28.856C129.818 28.6853 129.728 28.4453 129.728 28.136V21.96C129.728 21.6507 129.818 21.416 130 21.256C130.192 21.096 130.432 21.016 130.72 21.016C131.008 21.016 131.248 21.096 131.44 21.256C131.632 21.416 131.728 21.6507 131.728 21.96V28.136C131.728 28.4453 131.632 28.6853 131.44 28.856C131.248 29.016 131.008 29.096 130.72 29.096ZM130.72 19.592C130.357 19.592 130.069 19.496 129.856 19.304C129.642 19.1013 129.536 18.84 129.536 18.52C129.536 18.2 129.642 17.944 129.856 17.752C130.069 17.56 130.357 17.464 130.72 17.464C131.072 17.464 131.354 17.56 131.568 17.752C131.792 17.944 131.904 18.2 131.904 18.52C131.904 18.84 131.797 19.1013 131.584 19.304C131.37 19.496 131.082 19.592 130.72 19.592ZM138.354 27.608C138.887 27.64 139.154 27.88 139.154 28.328C139.154 28.584 139.047 28.7813 138.834 28.92C138.631 29.048 138.338 29.1013 137.954 29.08L137.522 29.048C135.73 28.92 134.834 27.96 134.834 26.168V22.68H134.034C133.746 22.68 133.522 22.616 133.362 22.488C133.213 22.36 133.138 22.1733 133.138 21.928C133.138 21.6827 133.213 21.496 133.362 21.368C133.522 21.24 133.746 21.176 134.034 21.176H134.834V19.704C134.834 19.416 134.925 19.1867 135.106 19.016C135.287 18.8453 135.533 18.76 135.842 18.76C136.141 18.76 136.381 18.8453 136.562 19.016C136.743 19.1867 136.834 19.416 136.834 19.704V21.176H138.194C138.482 21.176 138.701 21.24 138.85 21.368C139.01 21.496 139.09 21.6827 139.09 21.928C139.09 22.1733 139.01 22.36 138.85 22.488C138.701 22.616 138.482 22.68 138.194 22.68H136.834V26.312C136.834 27.1013 137.197 27.5227 137.922 27.576L138.354 27.608ZM145.272 20.984C147.107 20.984 148.024 22.056 148.024 24.2V28.136C148.024 28.4347 147.934 28.6693 147.752 28.84C147.582 29.0107 147.342 29.096 147.032 29.096C146.723 29.096 146.478 29.0107 146.296 28.84C146.115 28.6693 146.024 28.4347 146.024 28.136V24.2C146.024 23.6347 145.907 23.224 145.672 22.968C145.448 22.7013 145.091 22.568 144.6 22.568C144.024 22.568 143.56 22.7493 143.208 23.112C142.867 23.4747 142.696 23.96 142.696 24.568V28.136C142.696 28.4347 142.606 28.6693 142.424 28.84C142.243 29.0107 141.998 29.096 141.688 29.096C141.379 29.096 141.134 29.0107 140.952 28.84C140.782 28.6693 140.696 28.4347 140.696 28.136V18.568C140.696 18.2907 140.787 18.0667 140.968 17.896C141.16 17.7253 141.406 17.64 141.704 17.64C142.003 17.64 142.243 17.72 142.424 17.88C142.606 18.04 142.696 18.2587 142.696 18.536V22.264C142.963 21.848 143.315 21.5333 143.752 21.32C144.2 21.096 144.707 20.984 145.272 20.984ZM164.167 22.904C164.413 22.904 164.61 22.9787 164.759 23.128C164.909 23.2667 164.983 23.4533 164.983 23.688V27.128C164.983 27.6187 164.919 27.9653 164.791 28.168C164.663 28.3707 164.402 28.536 164.007 28.664C163.581 28.8133 163.085 28.9307 162.519 29.016C161.954 29.1013 161.41 29.144 160.887 29.144C159.725 29.144 158.717 28.9147 157.863 28.456C157.01 27.9973 156.354 27.336 155.895 26.472C155.447 25.5973 155.223 24.5573 155.223 23.352C155.223 22.168 155.447 21.144 155.895 20.28C156.354 19.4053 156.999 18.7387 157.831 18.28C158.663 17.8107 159.645 17.576 160.775 17.576C162.279 17.576 163.511 17.9813 164.471 18.792C164.599 18.9093 164.69 19.0267 164.743 19.144C164.807 19.2613 164.839 19.4 164.839 19.56C164.839 19.7947 164.775 19.992 164.647 20.152C164.519 20.312 164.365 20.392 164.183 20.392C164.066 20.392 163.959 20.376 163.863 20.344C163.767 20.3013 163.655 20.2373 163.527 20.152C163.058 19.8213 162.621 19.592 162.215 19.464C161.81 19.3253 161.351 19.256 160.839 19.256C159.677 19.256 158.797 19.6027 158.199 20.296C157.613 20.9787 157.319 21.9973 157.319 23.352C157.319 26.1253 158.535 27.512 160.967 27.512C161.693 27.512 162.418 27.4107 163.143 27.208V24.376H161.335C161.079 24.376 160.877 24.312 160.727 24.184C160.589 24.056 160.519 23.8747 160.519 23.64C160.519 23.4053 160.589 23.224 160.727 23.096C160.877 22.968 161.079 22.904 161.335 22.904H164.167ZM171.202 29.128C170.402 29.128 169.698 28.9627 169.09 28.632C168.492 28.3013 168.028 27.8267 167.698 27.208C167.367 26.5893 167.202 25.8693 167.202 25.048C167.202 24.2267 167.367 23.512 167.698 22.904C168.028 22.2853 168.492 21.8107 169.09 21.48C169.698 21.1493 170.402 20.984 171.202 20.984C172.002 20.984 172.7 21.1493 173.298 21.48C173.906 21.8107 174.37 22.2853 174.69 22.904C175.02 23.512 175.186 24.2267 175.186 25.048C175.186 25.8693 175.02 26.5893 174.69 27.208C174.37 27.8267 173.906 28.3013 173.298 28.632C172.7 28.9627 172.002 29.128 171.202 29.128ZM171.186 27.576C171.836 27.576 172.332 27.3627 172.674 26.936C173.015 26.5093 173.186 25.88 173.186 25.048C173.186 24.2267 173.015 23.6027 172.674 23.176C172.332 22.7387 171.842 22.52 171.202 22.52C170.562 22.52 170.066 22.7387 169.714 23.176C169.372 23.6027 169.202 24.2267 169.202 25.048C169.202 25.88 169.372 26.5093 169.714 26.936C170.055 27.3627 170.546 27.576 171.186 27.576ZM180.905 29.128C180.105 29.128 179.401 28.9627 178.793 28.632C178.196 28.3013 177.732 27.8267 177.401 27.208C177.07 26.5893 176.905 25.8693 176.905 25.048C176.905 24.2267 177.07 23.512 177.401 22.904C177.732 22.2853 178.196 21.8107 178.793 21.48C179.401 21.1493 180.105 20.984 180.905 20.984C181.705 20.984 182.404 21.1493 183.001 21.48C183.609 21.8107 184.073 22.2853 184.393 22.904C184.724 23.512 184.889 24.2267 184.889 25.048C184.889 25.8693 184.724 26.5893 184.393 27.208C184.073 27.8267 183.609 28.3013 183.001 28.632C182.404 28.9627 181.705 29.128 180.905 29.128ZM180.889 27.576C181.54 27.576 182.036 27.3627 182.377 26.936C182.718 26.5093 182.889 25.88 182.889 25.048C182.889 24.2267 182.718 23.6027 182.377 23.176C182.036 22.7387 181.545 22.52 180.905 22.52C180.265 22.52 179.769 22.7387 179.417 23.176C179.076 23.6027 178.905 24.2267 178.905 25.048C178.905 25.88 179.076 26.5093 179.417 26.936C179.758 27.3627 180.249 27.576 180.889 27.576ZM193.664 21.016C193.963 21.016 194.203 21.1013 194.384 21.272C194.565 21.4427 194.656 21.672 194.656 21.96V28.28C194.656 29.5067 194.315 30.4347 193.632 31.064C192.949 31.6933 191.941 32.008 190.608 32.008C189.445 32.008 188.475 31.7893 187.696 31.352C187.301 31.1173 187.104 30.8347 187.104 30.504C187.104 30.2693 187.157 30.0827 187.264 29.944C187.381 29.8053 187.531 29.736 187.712 29.736C187.808 29.736 187.925 29.7573 188.064 29.8C188.203 29.8533 188.347 29.912 188.496 29.976C188.88 30.136 189.221 30.2587 189.52 30.344C189.829 30.4293 190.181 30.472 190.576 30.472C191.973 30.472 192.672 29.7893 192.672 28.424V27.4C192.437 27.8373 192.096 28.1787 191.648 28.424C191.2 28.6587 190.688 28.776 190.112 28.776C189.429 28.776 188.821 28.616 188.288 28.296C187.765 27.9653 187.355 27.5067 187.056 26.92C186.757 26.3333 186.608 25.656 186.608 24.888C186.608 24.12 186.752 23.4427 187.04 22.856C187.339 22.2587 187.755 21.8 188.288 21.48C188.821 21.1493 189.429 20.984 190.112 20.984C190.688 20.984 191.2 21.1067 191.648 21.352C192.096 21.5867 192.437 21.9227 192.672 22.36V21.944C192.672 21.6667 192.763 21.4427 192.944 21.272C193.125 21.1013 193.365 21.016 193.664 21.016ZM190.64 27.224C191.28 27.224 191.776 27.016 192.128 26.6C192.491 26.184 192.672 25.6133 192.672 24.888C192.672 24.152 192.491 23.576 192.128 23.16C191.776 22.744 191.28 22.536 190.64 22.536C190.011 22.536 189.515 22.744 189.152 23.16C188.789 23.576 188.608 24.152 188.608 24.888C188.608 25.6133 188.789 26.184 189.152 26.6C189.515 27.016 190.011 27.224 190.64 27.224ZM198.22 29.096C197.932 29.096 197.692 29.016 197.5 28.856C197.318 28.6853 197.228 28.4453 197.228 28.136V18.584C197.228 18.2747 197.318 18.04 197.5 17.88C197.692 17.72 197.932 17.64 198.22 17.64C198.508 17.64 198.748 17.72 198.94 17.88C199.132 18.04 199.228 18.2747 199.228 18.584V28.136C199.228 28.4453 199.132 28.6853 198.94 28.856C198.748 29.016 198.508 29.096 198.22 29.096ZM207.982 26.856C208.163 26.856 208.307 26.9253 208.414 27.064C208.531 27.2027 208.59 27.3893 208.59 27.624C208.59 27.9547 208.393 28.232 207.998 28.456C207.635 28.6587 207.225 28.824 206.766 28.952C206.307 29.0693 205.87 29.128 205.454 29.128C204.195 29.128 203.198 28.7653 202.462 28.04C201.726 27.3147 201.358 26.3227 201.358 25.064C201.358 24.264 201.518 23.5547 201.838 22.936C202.158 22.3173 202.606 21.8373 203.182 21.496C203.769 21.1547 204.43 20.984 205.166 20.984C205.87 20.984 206.483 21.1387 207.006 21.448C207.529 21.7573 207.934 22.1947 208.222 22.76C208.51 23.3253 208.654 23.992 208.654 24.76C208.654 25.2187 208.451 25.448 208.046 25.448H203.326C203.39 26.184 203.598 26.728 203.95 27.08C204.302 27.4213 204.814 27.592 205.486 27.592C205.827 27.592 206.126 27.5493 206.382 27.464C206.649 27.3787 206.947 27.2613 207.278 27.112C207.598 26.9413 207.833 26.856 207.982 26.856ZM205.214 22.392C204.67 22.392 204.233 22.5627 203.902 22.904C203.582 23.2453 203.39 23.736 203.326 24.376H206.942C206.921 23.7253 206.761 23.2347 206.462 22.904C206.163 22.5627 205.747 22.392 205.214 22.392Z" fill="white"/>
<g filter="url(#filter1_dd)">
<path d="M43.8 2H4.2C2.98497 2 2 2.98497 2 4.2V43.8C2 45.015 2.98497 46 4.2 46H43.8C45.015 46 46 45.015 46 43.8V4.2C46 2.98497 45.015 2 43.8 2Z" fill="white"/>
</g>
<path fill-rule="evenodd" clip-rule="evenodd" d="M33.504 24.2252C33.504 23.5232 33.441 22.8482 33.324 22.2002H24V26.0297H29.328C29.0985 27.2672 28.401 28.3157 27.3525 29.0177V31.5017H30.552C32.424 29.7782 33.504 27.2402 33.504 24.2252Z" fill="#4285F4"/>
<path fill-rule="evenodd" clip-rule="evenodd" d="M24.0001 33.9001C26.6731 33.9001 28.9141 33.0136 30.5521 31.5016L27.3526 29.0176C26.4661 29.6116 25.3321 29.9626 24.0001 29.9626C21.4216 29.9626 19.2391 28.2211 18.4606 25.8811H15.1531V28.4461C16.7821 31.6816 20.1301 33.9001 24.0001 33.9001Z" fill="#34A853"/>
<path fill-rule="evenodd" clip-rule="evenodd" d="M18.4606 25.8812C18.2626 25.2872 18.1501 24.6527 18.1501 24.0002C18.1501 23.3477 18.2626 22.7132 18.4606 22.1192V19.5542H15.1531C14.4826 20.8907 14.1001 22.4027 14.1001 24.0002C14.1001 25.5977 14.4826 27.1097 15.1531 28.4462L18.4606 25.8812Z" fill="#FBBC05"/>
<path fill-rule="evenodd" clip-rule="evenodd" d="M24.0001 18.0376C25.4536 18.0376 26.7586 18.5371 27.7846 19.5181L30.6241 16.6786C28.9096 15.0811 26.6686 14.1001 24.0001 14.1001C20.1301 14.1001 16.7821 16.3186 15.1531 19.5541L18.4606 22.1191C19.2391 19.7791 21.4216 18.0376 24.0001 18.0376Z" fill="#EA4335"/>
<defs>
<filter id="filter0_d" x="0" y="0" width="281" height="52" filterUnits="userSpaceOnUse" color-interpolation-filters="sRGB">
<feFlood flood-opacity="0" result="BackgroundImageFix"/>
<feColorMatrix in="SourceAlpha" type="matrix" values="0 0 0 0 0 0 0 0 0 0 0 0 0 0 0 0 0 0 127 0"/>
<feOffset dx="2" dy="2"/>
<feGaussianBlur stdDeviation="1.5"/>
<feColorMatrix type="matrix" values="0 0 0 0 0 0 0 0 0 0 0 0 0 0 0 0 0 0 0.1 0"/>
<feBlend mode="normal" in2="BackgroundImageFix" result="effect1_dropShadow"/>
<feBlend mode="normal" in="SourceGraphic" in2="effect1_dropShadow" result="shape"/>
</filter>
<filter id="filter1_dd" x="1" y="1" width="46" height="47" filterUnits="userSpaceOnUse" color-interpolation-filters="sRGB">
<feFlood flood-opacity="0" result="BackgroundImageFix"/>
<feColorMatrix in="SourceAlpha" type="matrix" values="0 0 0 0 0 0 0 0 0 0 0 0 0 0 0 0 0 0 127 0"/>
<feOffset dy="1"/>
<feGaussianBlur stdDeviation="0.5"/>
<feColorMatrix type="matrix" values="0 0 0 0 0 0 0 0 0 0 0 0 0 0 0 0 0 0 0.168 0"/>
<feBlend mode="normal" in2="BackgroundImageFix" result="effect1_dropShadow"/>
<feColorMatrix in="SourceAlpha" type="matrix" values="0 0 0 0 0 0 0 0 0 0 0 0 0 0 0 0 0 0 127 0"/>
<feOffset/>
<feGaussianBlur stdDeviation="0.5"/>
<feColorMatrix type="matrix" values="0 0 0 0 0 0 0 0 0 0 0 0 0 0 0 0 0 0 0.084 0"/>
<feBlend mode="normal" in2="effect1_dropShadow" result="effect2_dropShadow"/>
<feBlend mode="normal" in="SourceGraphic" in2="effect2_dropShadow" result="shape"/>
</filter>
</defs>
</svg>
